<svg width="340" height="96" viewBox="0 0 340 96" fill="none" xmlns="http://www.w3.org/2000/svg">
<path d="M49.5455 24.7812C49.0483 23.053 48.3499 21.526 47.4503 20.2003C46.5507 18.8509 45.4498 17.7145 44.1477 16.7912C42.8693 15.8442 41.4015 15.1222 39.7443 14.625C38.1108 14.1278 36.2997 13.8793 34.3111 13.8793C30.5942 13.8793 27.3272 14.8026 24.5099 16.6491C21.7164 18.4957 19.5384 21.1828 17.9759 24.7102C16.4134 28.214 15.6321 32.4991 15.6321 37.5653C15.6321 42.6316 16.4015 46.9403 17.9403 50.4915C19.4792 54.0426 21.6572 56.7533 24.4744 58.6236C27.2917 60.4702 30.6179 61.3935 34.4531 61.3935C37.9332 61.3935 40.9044 60.7779 43.3665 59.5469C45.8523 58.2921 47.7462 56.5284 49.0483 54.2557C50.3741 51.983 51.0369 49.2959 51.0369 46.1946L54.1619 46.6562H35.4119V35.0795H65.8452V44.2415C65.8452 50.6335 64.4957 56.1259 61.7969 60.7188C59.098 65.2879 55.3812 68.8153 50.6463 71.3011C45.9115 73.7633 40.4901 74.9943 34.3821 74.9943C27.5639 74.9943 21.5743 73.491 16.4134 70.4844C11.2524 67.4541 7.22775 63.1572 4.33949 57.5938C1.47491 52.0066 0.0426137 45.3778 0.0426137 37.7074C0.0426137 31.8125 0.894886 26.5568 2.59943 21.9403C4.32765 17.3002 6.74242 13.3703 9.84375 10.1506C12.9451 6.93087 16.5554 4.48058 20.6747 2.79971C24.794 1.11884 29.2566 0.278406 34.0625 0.278406C38.1818 0.278406 42.017 0.8821 45.5682 2.08949C49.1193 3.2732 52.268 4.95407 55.0142 7.1321C57.7841 9.31013 60.045 11.9025 61.7969 14.9091C63.5488 17.892 64.6733 21.1828 65.1705 24.7812H49.5455Z" fill="#2E7D45"/>
<path d="M101.756 75.0653C96.2399 75.0653 91.4696 73.8935 87.445 71.5497C83.444 69.1823 80.3545 65.8916 78.1765 61.6776C75.9985 57.4399 74.9094 52.5275 74.9094 46.9403C74.9094 41.3059 75.9985 36.3816 78.1765 32.1676C80.3545 27.9299 83.444 24.6392 87.445 22.2955C91.4696 19.928 96.2399 18.7443 101.756 18.7443C107.272 18.7443 112.031 19.928 116.032 22.2955C120.056 24.6392 123.158 27.9299 125.336 32.1676C127.514 36.3816 128.603 41.3059 128.603 46.9403C128.603 52.5275 127.514 57.4399 125.336 61.6776C123.158 65.8916 120.056 69.1823 116.032 71.5497C112.031 73.8935 107.272 75.0653 101.756 75.0653ZM101.827 63.3466C104.337 63.3466 106.432 62.6364 108.113 61.2159C109.793 59.7718 111.06 57.8068 111.912 55.321C112.788 52.8352 113.226 50.0062 113.226 46.8338C113.226 43.6615 112.788 40.8324 111.912 38.3466C111.06 35.8608 109.793 33.8958 108.113 32.4517C106.432 31.0076 104.337 30.2855 101.827 30.2855C99.2939 30.2855 97.1632 31.0076 95.435 32.4517C93.7305 33.8958 92.4402 35.8608 91.5643 38.3466C90.712 40.8324 90.2859 43.6615 90.2859 46.8338C90.2859 50.0062 90.712 52.8352 91.5643 55.321C92.4402 57.8068 93.7305 59.7718 95.435 61.2159C97.1632 62.6364 99.2939 63.3466 101.827 63.3466ZM339.505 1.27273V74H324.377V1.27273H339.505Z" fill="#D64533"/>
<path d="M163.084 75.0653C157.568 75.0653 152.798 73.8935 148.773 71.5497C144.772 69.1823 141.683 65.8916 139.505 61.6776C137.327 57.4399 136.238 52.5275 136.238 46.9403C136.238 41.3059 137.327 36.3816 139.505 32.1676C141.683 27.9299 144.772 24.6392 148.773 22.2955C152.798 19.928 157.568 18.7443 163.084 18.7443C168.6 18.7443 173.359 19.928 177.36 22.2955C181.384 24.6392 184.486 27.9299 186.664 32.1676C188.842 36.3816 189.931 41.3059 189.931 46.9403C189.931 52.5275 188.842 57.4399 186.664 61.6776C184.486 65.8916 181.384 69.1823 177.36 71.5497C173.359 73.8935 168.6 75.0653 163.084 75.0653ZM163.155 63.3466C165.665 63.3466 167.76 62.6364 169.441 61.2159C171.122 59.7718 172.388 57.8068 173.24 55.321C174.116 52.8352 174.554 50.0062 174.554 46.8338C174.554 43.6615 174.116 40.8324 173.24 38.3466C172.388 35.8608 171.122 33.8958 169.441 32.4517C167.76 31.0076 165.665 30.2855 163.155 30.2855C160.622 30.2855 158.491 31.0076 156.763 32.4517C155.059 33.8958 153.768 35.8608 152.892 38.3466C152.04 40.8324 151.614 43.6615 151.614 46.8338C151.614 50.0062 152.04 52.8352 152.892 55.321C153.768 57.8068 155.059 59.7718 156.763 61.2159C158.491 62.6364 160.622 63.3466 163.155 63.3466ZM287.694 75.0653C282.177 75.0653 277.407 73.8935 273.382 71.5497C269.382 69.1823 266.292 65.8916 264.114 61.6776C261.936 57.4399 260.847 52.5275 260.847 46.9403C260.847 41.3059 261.936 36.3816 264.114 32.1676C266.292 27.9299 269.382 24.6392 273.382 22.2955C277.407 19.928 282.177 18.7443 287.694 18.7443C293.21 18.7443 297.968 19.928 301.969 22.2955C305.994 24.6392 309.095 27.9299 311.273 32.1676C313.451 36.3816 314.54 41.3059 314.54 46.9403C314.54 52.5275 313.451 57.4399 311.273 61.6776C309.095 65.8916 305.994 69.1823 301.969 71.5497C297.968 73.8935 293.21 75.0653 287.694 75.0653ZM287.765 63.3466C290.274 63.3466 292.369 62.6364 294.05 61.2159C295.731 59.7718 296.998 57.8068 297.85 55.321C298.726 52.8352 299.164 50.0062 299.164 46.8338C299.164 43.6615 298.726 40.8324 297.85 38.3466C296.998 35.8608 295.731 33.8958 294.05 32.4517C292.369 31.0076 290.274 30.2855 287.765 30.2855C285.231 30.2855 283.101 31.0076 281.373 32.4517C279.668 33.8958 278.378 35.8608 277.502 38.3466C276.65 40.8324 276.223 43.6615 276.223 46.8338C276.223 50.0062 276.65 52.8352 277.502 55.321C278.378 57.8068 279.668 59.7718 281.373 61.2159C283.101 62.6364 285.231 63.3466 287.765 63.3466Z" fill="#F4A202"/>
<path d="M224.341 95.5909C219.441 95.5909 215.239 94.9162 211.735 93.5668C208.255 92.241 205.485 90.4299 203.425 88.1335C201.365 85.8371 200.028 83.2566 199.412 80.392L213.404 78.5099C213.83 79.599 214.505 80.617 215.428 81.5639C216.351 82.5109 217.57 83.2685 219.086 83.8366C220.624 84.4285 222.495 84.7244 224.696 84.7244C227.987 84.7244 230.698 83.9195 232.828 82.3097C234.983 80.7235 236.06 78.0601 236.06 74.3196V64.3409H235.421C234.758 65.8561 233.764 67.2884 232.438 68.6378C231.112 69.9872 229.408 71.0881 227.324 71.9403C225.241 72.7926 222.755 73.2188 219.867 73.2188C215.771 73.2188 212.042 72.2718 208.681 70.3778C205.343 68.4602 202.679 65.5365 200.691 61.6065C198.726 57.6529 197.743 52.6577 197.743 46.6207C197.743 40.4418 198.749 35.2808 200.762 31.1378C202.774 26.9948 205.449 23.8935 208.787 21.8338C212.149 19.7741 215.83 18.7443 219.831 18.7443C222.885 18.7443 225.442 19.2652 227.502 20.3068C229.561 21.3248 231.219 22.6032 232.473 24.142C233.752 25.6572 234.734 27.1487 235.421 28.6165H235.989V19.4545H251.01V74.5327C251.01 79.1728 249.874 83.0554 247.601 86.1804C245.328 89.3054 242.18 91.6491 238.155 93.2116C234.154 94.7978 229.55 95.5909 224.341 95.5909ZM224.661 61.8551C227.099 61.8551 229.159 61.2514 230.84 60.044C232.544 58.813 233.846 57.0611 234.746 54.7884C235.669 52.492 236.131 49.7457 236.131 46.5497C236.131 43.3537 235.681 40.5838 234.782 38.2401C233.882 35.8726 232.58 34.0379 230.875 32.7358C229.171 31.4337 227.099 30.7827 224.661 30.7827C222.175 30.7827 220.08 31.4574 218.375 32.8068C216.671 34.1326 215.381 35.9792 214.505 38.3466C213.629 40.714 213.191 43.4484 213.191 46.5497C213.191 49.6984 213.629 52.4209 214.505 54.7173C215.404 56.9901 216.694 58.7538 218.375 60.0085C220.08 61.2396 222.175 61.8551 224.661 61.8551Z" fill="#3B78D8"/>
</svg>
